<svg width="16" height="16" viewBox="0 0 16 16" fill="none" xmlns="http://www.w3.org/2000/svg">
<path d="M15.3812 3.04103C15.8923 2.52988 15.8923 1.70115 15.3812 1.19C14.8701 0.678854 14.0413 0.678854 13.5302 1.19L8.28561 6.43457L3.04104 1.19C2.5299 0.678855 1.70116 0.678854 1.19002 1.19C0.67887 1.70115 0.678871 2.52988 1.19002 3.04103L6.43458 8.28559L1.19 13.5302C0.678854 14.0413 0.678854 14.8701 1.19 15.3812C1.70115 15.8923 2.52988 15.8923 3.04103 15.3812L8.28561 10.1366L13.5302 15.3812C14.0413 15.8924 14.8701 15.8924 15.3812 15.3812C15.8924 14.8701 15.8924 14.0413 15.3812 13.5302L10.1366 8.28559L15.3812 3.04103Z" fill="#92909A"/>
</svg>
